<?xml version="1.0" encoding="UTF-8"?>
<svg id="Layer_2" data-name="Layer 2" xmlns="http://www.w3.org/2000/svg" viewBox="0 0 6374.43 1612.1">
  <defs>
    <style>
      .cls-1 {
        fill: none;
      }

      .cls-2 {
        fill: #a2cd3a;
      }

      .cls-3 {
        fill: #fff;
      }
    </style>
  </defs>
  <g id="Layer_1-2" data-name="Layer 1">
    <g>
      <g>
        <path class="cls-2" d="M5168.98,1024.13c-3.74-1.91-6.84-4.69-9.3-8.34-2.46-3.64-5.7-9.3-9.71-16.95-5.47-10.39-11.03-26.25-16.68-47.58-5.65-21.33-10.53-43.29-14.63-65.9-4.1-22.6-6.61-40.65-7.52-54.14-.18-2.19.77-4.38,2.87-6.56,2.09-2.19,5.61-3.28,10.53-3.28,3.46,0,6.2.41,8.2,1.23,2,.82,3.51,1.96,4.51,3.42,1,1.46,1.68,3.19,2.05,5.2,3.83,25.34,7.38,47.12,10.66,65.35,3.28,18.23,7.56,36.82,12.85,55.78,5.29,18.96,11.57,36.19,18.87,51.68,5.1-11.66,9.61-24.38,13.54-38.14,3.92-13.76,7.29-27.48,10.12-41.15,2.82-13.67,5.88-29.8,9.16-48.4,5.83-29.89,8.75-44.75,8.75-44.57.73-3.1,2-5.24,3.83-6.43,1.82-1.18,4.55-1.78,8.2-1.78,3.46,0,6.2.64,8.2,1.91,2,1.28,3.28,3.19,3.83,5.74,2,9.66,4.83,24.7,8.48,45.12,3.28,19.32,6.29,35.68,9.02,49.08s6.11,26.89,10.12,40.47c4.01,13.58,8.75,26.11,14.22,37.6,7.47-14.58,13.76-30.39,18.87-47.44,5.1-17.04,9.11-33.68,12.03-49.9,2.91-16.22,6.02-35.82,9.3-58.79l2.19-15.04c.36-2.55,1.23-4.65,2.6-6.29s3.05-2.82,5.06-3.55c2-.73,4.1-1.09,6.29-1.09,2.37,0,4.65.32,6.84.96,2.19.64,3.92,1.6,5.2,2.87,1.27,1.28,1.91,2.92,1.91,4.92-.55,13.31-3.05,31.63-7.52,54.96-4.47,23.34-9.67,46.07-15.59,68.22-5.93,22.15-11.44,38.42-16.54,48.81-3.65,7.29-6.75,12.58-9.3,15.86-2.56,3.28-5.38,5.52-8.48,6.7-3.1,1.18-7.38,1.87-12.85,2.05-4.56.18-8.52-.5-11.89-2.05-3.38-1.55-6.43-4.05-9.16-7.52-2.73-3.46-5.38-8.11-7.93-13.95-3.83-8.38-8.93-25.47-15.31-51.27-6.38-25.79-10.3-43.79-11.76-54-.37-2.91-.41-4.14-.14-3.69.27.46,1.05,2.69,2.32,6.7,2-8.2,2.73-9.75,2.19-4.65-.91,8.75-3.96,25.2-9.16,49.36-5.2,24.16-9.98,41.97-14.36,53.46-1.82,4.92-3.88,9.34-6.15,13.26-2.28,3.92-5.43,7.34-9.43,10.25-4.01,2.91-8.93,4.38-14.77,4.38s-10.89-.96-14.63-2.87Z"/>
        <path class="cls-2" d="M5391.29,1005.4c-12.49-14.22-18.83-34.73-19-61.52,0-12.39,2.19-24.56,6.56-36.5,4.38-11.94,12.21-22.1,23.52-30.49,11.3-8.38,26.7-12.58,46.21-12.58,13.49,0,25.11,2.55,34.86,7.66,9.75,5.11,17.13,11.89,22.15,20.37,5.01,8.48,7.52,17.82,7.52,28.03s-1.46,17.96-4.38,24.34c-1.64,3.46-7.02,6.2-16.13,8.2-9.12,2.01-19.05,3.01-29.8,3.01-12.21,0-24.57-.55-37.05-1.64-12.49-1.09-21.01-2.19-25.57-3.28,1.09,36.46,17.04,54.51,47.85,54.14,8.38-.18,16.54-1.55,24.47-4.1,7.93-2.55,15.54-5.65,22.83-9.3,1.46-.73,2.78-1.37,3.96-1.91,1.18-.55,2.05-.82,2.6-.82,1.27,0,2.78.82,4.51,2.46,1.73,1.64,3.14,3.55,4.24,5.74,1.46,3.28,1.73,6.43.82,9.43-.92,3.01-3.65,5.61-8.2,7.79-9.84,4.74-18.83,8.11-26.93,10.12-8.11,2-17.27,2.91-27.48,2.73-25.89-.37-45.08-7.66-57.56-21.88ZM5424.65,936.08c12.67,1,25.38,1.37,38.14,1.09,12.76-.27,21.78-1.5,27.07-3.69.73-15.49-2.64-27.39-10.12-35.68-7.48-8.29-17.96-12.44-31.45-12.44-9.12,0-16.86,1.23-23.24,3.69-6.38,2.46-11.72,7.11-16,13.95-4.29,6.84-7.16,16.64-8.61,29.39,3.46,1.46,11.53,2.69,24.2,3.69Z"/>
        <path class="cls-2" d="M5599.24,1021.53c-9.3-4.92-16.77-11.94-22.42-21.05.18,8.39,0,14.49-.55,18.32s-1.69,6.38-3.42,7.66c-1.74,1.27-4.51,1.91-8.34,1.91-5.29,0-8.89-1-10.8-3.01s-2.97-5.56-3.14-10.66c-.18-12.76-.23-29.85-.14-51.27.09-21.42.14-44.25.14-68.5.18-20.05.27-40.1.27-60.16,0-2.55.45-4.69,1.37-6.43.91-1.73,2.37-3.01,4.38-3.83,2-.82,4.46-1.23,7.38-1.23,3.28,0,5.83.41,7.66,1.23,1.82.82,3.14,2.05,3.96,3.69s1.23,3.83,1.23,6.56c0,24.61-.27,44.3-.82,59.06,6.38-9.84,14.12-17.04,23.24-21.6,9.11-4.55,18.05-6.84,26.8-6.84,14.77,0,27.52,3.69,38.28,11.07,10.75,7.38,18.91,17.32,24.47,29.8,5.56,12.49,8.34,26.21,8.34,41.15,0,16.04-2.51,30.08-7.52,42.11-5.02,12.03-12.85,21.51-23.52,28.44s-24.02,10.48-40.06,10.66c-8.57.18-17.5-2.19-26.8-7.11ZM5659.12,989.68c7.66-10.48,11.48-23.83,11.48-40.06,0-10.57-1.69-20.46-5.06-29.67-3.38-9.2-8.43-16.59-15.18-22.15-6.75-5.56-14.86-8.34-24.34-8.34-17.68,0-30.31,5.02-37.87,15.04-7.57,10.03-11.35,25.07-11.35,45.12s4.14,34.14,12.44,42.79c8.29,8.66,20.55,12.99,36.78,12.99,14.4,0,25.43-5.24,33.09-15.72Z"/>
        <path class="cls-2" d="M5166.66,1288.12c-15.86-8.29-28.21-19.78-37.05-34.45-8.84-14.67-13.36-31.21-13.54-49.63-.37-22.42,3.6-42.06,11.89-58.93,8.29-16.86,20.05-29.94,35.27-39.24,15.22-9.3,32.86-14.31,52.91-15.04,20.6-.73,37.32,1.55,50.18,6.84,12.85,5.29,23.47,12.03,31.86,20.23,2.91,2.92,4.55,5.43,4.92,7.52.36,2.1.04,3.88-.96,5.33-1,1.46-2.96,3.92-5.88,7.38-2.37,2.73-4.97,4.06-7.79,3.96-2.83-.09-5.97-1.5-9.43-4.24-8.02-6.56-16.68-11.66-25.98-15.31-9.3-3.64-20.33-5.47-33.09-5.47-10.76,0-21.79,2.6-33.09,7.79-11.3,5.2-20.92,13.86-28.85,25.98-7.93,12.12-11.89,27.94-11.89,47.44,0,29.35,9.34,50,28.03,61.93,18.68,11.94,39.14,16.32,61.39,13.12,22.24-3.19,35.64-10.25,40.2-21.19,2.19-4.92,3.32-11.44,3.42-19.55.09-8.11-.32-15.63-1.23-22.56-5.29,1.09-13.26,1.73-23.93,1.91-10.66.18-19.37-.27-26.11-1.37-2.73-.55-4.61-1.96-5.61-4.24-1-2.28-1.5-4.88-1.5-7.79,0-3.1.55-5.56,1.64-7.38,1.09-1.82,3.1-3.1,6.02-3.83,7.29-1.46,17.32-2.37,30.08-2.73,12.76-.36,20.96-.09,24.61.82,5.29,1.28,9.39,3.1,12.3,5.47,2.91,2.37,5.29,6.11,7.11,11.21,1.64,4.56,2.73,9.57,3.28,15.04s.73,11.03.55,16.68c-.37,12.58-4.01,23.93-10.94,34.04-6.93,10.12-16.77,18.09-29.53,23.93-12.76,5.83-27.71,8.75-44.84,8.75-20.42,0-38.55-4.15-54.41-12.44Z"/>
        <path class="cls-2" d="M5384.04,1291.94c-6.38-3.37-11.35-8.02-14.9-13.95-3.55-5.92-5.24-12.62-5.06-20.1.55-13.3,4.38-27.98,11.48-44.02,7.11-16.04,16.68-32.72,28.71-50.04-14.95-.91-29.71-2.19-44.3-3.83-.92,6.2-2.23,13.22-3.96,21.05-1.74,7.84-3.14,13.31-4.24,16.41-1.09,3.1-2.23,5.33-3.42,6.7-1.19,1.37-2.73,2.19-4.65,2.46s-4.42.05-7.52-.68c-2.56-.55-4.61-1.32-6.15-2.32-1.55-1-2.6-2.46-3.14-4.38s-.64-4.42-.27-7.52l.82-4.1c2.91-12.58,5.74-23.97,8.48-34.18l3.83-12.3c1.27-4.19,2.73-7.02,4.38-8.48,1.64-1.46,3.55-1.82,5.74-1.09,2.55.91,4.83,2.01,6.84,3.28,2,1.28,3.55,2.83,4.65,4.65,9.66-.73,17.68-1.05,24.06-.96,6.38.09,14.12.59,23.24,1.5,4.92.55,9.34,1.64,13.26,3.28,3.92,1.64,6.65,4.47,8.2,8.48,1.55,4.01.68,9.48-2.6,16.41-3.1,6.38-6.11,12.4-9.02,18.05-2.92,5.65-5.65,11.03-8.2,16.13-7.11,13.49-12.17,23.52-15.18,30.08s-4.79,12.58-5.33,18.05c-.92,6.93-.14,12.08,2.32,15.45,2.46,3.38,6.79,5.06,12.99,5.06,8.57,0,15.45-3.55,20.64-10.66s10.25-16.59,15.18-28.44c2.19-5.65,3.96-9.66,5.33-12.03,1.37-2.37,2.78-3.55,4.24-3.55,2.91,0,6.06.5,9.43,1.5,3.37,1,6.15,2.37,8.34,4.1,2.19,1.73,3.28,3.51,3.28,5.33,0,4.74-2.92,12.9-8.75,24.47-5.84,11.58-13.77,22.01-23.79,31.31-10.03,9.3-21.24,13.95-33.63,13.95-7.84,0-14.95-1.69-21.33-5.06Z"/>
        <path class="cls-2" d="M5509.96,1290.85c-7.2-4.1-12.54-9.71-16-16.82-3.46-7.11-5.2-15.31-5.2-24.61,0-14.77,4.6-26.57,13.81-35.41,9.2-8.84,23.11-13.26,41.7-13.26,7.66,0,14.36.5,20.1,1.5,5.74,1,12.26,2.42,19.55,4.24,5.1,1.28,9.39,2.28,12.85,3.01,0-18.05-3.74-31.12-11.21-39.24-7.48-8.11-16.95-12.17-28.44-12.17-9.3,0-17.14.96-23.52,2.87-6.38,1.91-12.95,4.42-19.69,7.52-2.01.91-3.92,1.73-5.74,2.46-1.82.73-3.38,1.09-4.65,1.09-1.46,0-2.97-.86-4.51-2.6-1.55-1.73-2.87-3.83-3.96-6.29s-1.64-4.69-1.64-6.7.64-3.73,1.91-5.2c1.27-1.46,3.46-3.1,6.56-4.92,9.3-4.92,18.5-8.29,27.62-10.12,9.11-1.82,19.23-2.73,30.35-2.73s21.78,2.83,31.45,8.48c9.66,5.65,17.5,14.18,23.52,25.57,6.02,11.39,9.2,25.39,9.57,41.97-.18,4.2-.27,7.34-.27,9.43s-.09,5.15-.27,9.16c-.55,14.77-.82,22.97-.82,24.61,0,6.56.64,11.26,1.91,14.08,1.27,2.83,3.01,5.33,5.2,7.52.73.55,1.27,1.09,1.64,1.64.36.55.55,1.19.55,1.91,0,3.83-.82,7.16-2.46,9.98-1.64,2.83-3.69,5.02-6.15,6.56s-4.7,2.32-6.7,2.32c-3.46,0-6.84-2.73-10.12-8.2s-5.65-13.58-7.11-24.34c-13.49,21.88-34.36,32.81-62.62,32.81-10.94,0-20.01-2.05-27.21-6.15ZM5581.46,1262.55c9.84-7.66,14.77-19.23,14.77-34.73-1.82-.36-3.55-.77-5.2-1.23-1.64-.45-3.38-.86-5.2-1.23-5.47-1.64-10.71-2.87-15.72-3.69-5.02-.82-10.71-1.23-17.09-1.23-12.95,0-22.52,2.01-28.71,6.02-6.2,4.01-9.39,11.3-9.57,21.88-.18,9.12,2.28,15.68,7.38,19.69,5.1,4.01,12.03,6.02,20.78,6.02,15.86,0,28.71-3.83,38.55-11.48Z"/>
        <path class="cls-2" d="M5660.62,1338.56c-1.91-1.82-2.87-4.74-2.87-8.75v-82.17c0-34.73.09-62.84.27-84.36,0-7.84.36-13.62,1.09-17.36.73-3.73,1.87-6.15,3.42-7.25,1.55-1.09,3.6-1.64,6.15-1.64,3.28,0,6.11,1.41,8.48,4.24,2.37,2.83,4.55,8.71,6.56,17.64,2.91-5.65,8.66-10.89,17.23-15.72,8.57-4.83,17.59-7.25,27.07-7.25,23.33,0,40.78,7.29,52.36,21.88,11.57,14.59,17.36,34.36,17.36,59.34,0,14.95-3.01,28.53-9.02,40.74-6.02,12.21-14.18,21.79-24.47,28.71-10.3,6.93-21.46,10.39-33.5,10.39-11.31,0-20.92-2.1-28.85-6.29s-13.99-9.48-18.18-15.86c.18,6.56.23,15.82.14,27.75-.09,11.94-.23,20.92-.41,26.93-.18,2.91-.64,5.2-1.37,6.84-.73,1.64-2.01,2.87-3.83,3.69-1.82.82-4.38,1.23-7.66,1.23-4.74,0-8.07-.91-9.98-2.73ZM5757.97,1258.99c8.84-9.48,13.26-23.88,13.26-43.2,0-9.3-1.55-18.27-4.65-26.93-3.1-8.66-8.3-15.81-15.59-21.46-7.29-5.65-16.77-8.48-28.44-8.48s-20.28,4.29-27.48,12.85c-7.2,8.57-10.8,23.24-10.8,44.02,0,15.5,1.64,27.48,4.92,35.96s7.7,14.18,13.26,17.09c5.56,2.92,12.26,4.38,20.1,4.38,14.77,0,26.57-4.74,35.41-14.22Z"/>
        <path class="cls-2" d="M5842.32,1294.81c-1.82-.73-3.14-1.91-3.96-3.55s-1.33-3.73-1.5-6.29c-.18-4.01-.37-13.76-.55-29.26-.18-15.49-.27-32.17-.27-50.04,0-59.43.18-94.97.55-106.64.18-1.82.73-3.37,1.64-4.65.91-1.27,2.32-2.32,4.24-3.14s4.42-1.23,7.52-1.23c2.73,0,5.01.37,6.84,1.09,1.82.73,3.23,1.87,4.24,3.42,1,1.55,1.5,3.6,1.5,6.15l-.27,20.51c-.18,15.5-.37,31.08-.55,46.76,7.29-12.03,16.17-20.51,26.66-25.43,10.48-4.92,20.64-7.38,30.49-7.38,14.22,0,26.02,3.69,35.41,11.07,9.39,7.38,14.53,18.37,15.45,32.95.36,5.47.18,19.87-.55,43.2-.73,22.06-1,37.37-.82,45.94,0,1.46.32,2.83.96,4.1.64,1.28,1.32,2.37,2.05,3.28.91,1.09,1.64,2.19,2.19,3.28s.82,2.55.82,4.38c0,1.46-1.14,3.28-3.42,5.47-2.28,2.19-5.06,4.06-8.34,5.61s-6.29,2.32-9.02,2.32c-2.19,0-4.38-1.37-6.56-4.1s-3.65-8.29-4.38-16.68c-.37-4.01-.37-22.15,0-54.41,0-9.11.04-17.09.14-23.93.09-6.84.04-11.8-.14-14.9-.37-6.38-2.64-12.3-6.84-17.77-4.2-5.47-11.39-8.2-21.6-8.2-6.56,0-13.95,2.1-22.15,6.29-8.2,4.2-15.18,9.94-20.92,17.23-5.74,7.29-8.61,15.31-8.61,24.06.18,10.39.27,24.02.27,40.88s-.09,30.4-.27,40.61c-.18,2.37-.68,4.29-1.5,5.74-.82,1.46-2.19,2.55-4.1,3.28-1.91.73-4.51,1.09-7.79,1.09-2.73,0-5.02-.37-6.84-1.09Z"/>
        <path class="cls-2" d="M6011.58,1115.3c-3.28-3.73-4.92-8.43-4.92-14.08,0-5.29,1.64-9.57,4.92-12.85s8.11-4.92,14.49-4.92c5.65,0,10.16,1.69,13.54,5.06,3.37,3.38,5.06,7.61,5.06,12.71,0,5.47-1.69,10.12-5.06,13.95-3.38,3.83-7.89,5.74-13.54,5.74-6.38,0-11.21-1.87-14.49-5.61ZM6021.97,1293.17c-2.56-2.55-4.65-6.29-6.29-11.21s-2.46-10.75-2.46-17.5c-.37-10.21-.55-28.21-.55-54s.27-47.35.82-64.67c.18-4.01,1.23-6.74,3.14-8.2,1.91-1.46,5.06-2.19,9.43-2.19,3.46,0,6.15.32,8.07.96,1.91.64,3.32,1.69,4.24,3.14.91,1.46,1.37,3.65,1.37,6.56.18,11.3.27,31.08.27,59.34v35.41c0,10.85.18,20.1.55,27.75,0,2.37.91,4.65,2.73,6.84.18.18.27.37.27.55.91,1.28,1.59,2.46,2.05,3.55.45,1.09.68,2.46.68,4.1,0,2.19-2.01,4.97-6.02,8.34-4.01,3.37-7.57,5.06-10.66,5.06-2.56,0-5.11-1.28-7.66-3.83Z"/>
        <path class="cls-2" d="M6111.25,1288.66c-11.21-5.74-19.92-14.58-26.11-26.52-6.2-11.94-9.3-27.11-9.3-45.53,0-16.59,3.1-31.12,9.3-43.61,6.19-12.48,15.04-22.19,26.52-29.12,11.48-6.93,24.79-10.39,39.92-10.39,17.13,0,30.62,3.01,40.47,9.02s16.68,13.17,20.51,21.46c3.83,8.3,5.74,16.54,5.74,24.75,0,2.73-.92,4.79-2.73,6.15-1.82,1.37-4.65,2.23-8.48,2.6-4.2.37-7.66,0-10.39-1.09s-4.2-2.91-4.38-5.47c-1.28-12.03-5.38-20.96-12.3-26.8-6.93-5.83-16.41-8.75-28.44-8.75-15.31,0-27.17,5.88-35.55,17.64-8.39,11.76-12.58,26.48-12.58,44.16,0,13.31,2.32,24.29,6.97,32.95,4.65,8.66,10.62,15,17.91,19,7.29,4.01,15.04,6.02,23.24,6.02,9.66,0,17.82-1.73,24.47-5.2,6.65-3.46,12.71-7.56,18.18-12.3l4.38-3.28c1.64-.73,3.42-.55,5.33.55s3.96,2.64,6.15,4.65c2.19,2.37,3.32,4.74,3.42,7.11.09,2.37-1.23,5.29-3.96,8.75-5.11,6.02-12.76,11.17-22.97,15.45-10.21,4.28-21.88,6.43-35,6.43-15.68,0-29.12-2.87-40.33-8.61Z"/>
        <path class="cls-2" d="M6275.31,1290.58c-10.3-4.28-18.69-10.62-25.16-19-6.47-8.38-10.35-18.5-11.62-30.35-.55-3.83.23-6.52,2.32-8.07,2.09-1.55,4.96-2.32,8.61-2.32,8.02,0,12.58,2.73,13.67,8.2,2.55,11.85,7.93,20.64,16.13,26.39s18.32,8.61,30.35,8.61,20.46-3.51,26.93-10.53c6.47-7.02,9.8-15.27,9.98-24.75.18-9.66-1.82-18.68-6.02-27.07-4.2-8.38-10.3-18.14-18.32-29.26-6.56-9.3-11.39-16.82-14.49-22.56-3.1-5.74-4.92-11.71-5.47-17.91l10.12.82c.73,1.09-1.14,4.42-5.61,9.98-4.47,5.56-9.75,11.44-15.86,17.64-6.11,6.2-10.44,10.21-12.99,12.03-2.19,1.64-4.97,1.37-8.34-.82-3.38-2.19-5.88-5.1-7.52-8.75-1.64-3.64-1.37-6.56.82-8.75l35.55-35.55c1.82-1.82,5.2-2.73,10.12-2.73s9.48.91,13.67,2.73c4.19,1.82,6.29,4.1,6.29,6.84.18,4.56,1.78,9.57,4.79,15.04s7.7,12.95,14.08,22.42c8.93,13.31,15.68,24.52,20.23,33.63,4.55,9.12,6.84,18.32,6.84,27.62,0,13.12-2.97,24.43-8.89,33.91-5.93,9.48-13.81,16.68-23.65,21.6s-20.6,7.38-32.27,7.38c-12.58,0-24.02-2.14-34.32-6.43Z"/>
        <path class="cls-2" d="M5159.69,1557.02c-14.68-8.48-25.52-20.05-32.54-34.73-7.02-14.67-10.71-31.67-11.07-51-.55-21.14,2.19-39.74,8.2-55.78,6.02-16.04,16.31-28.75,30.9-38.14,14.58-9.39,34-14.08,58.24-14.08,12.94,0,24.79,1.46,35.55,4.38,10.75,2.92,20.05,7.66,27.89,14.22,2.37,2.01,3.87,4.1,4.51,6.29.64,2.19-.14,5.02-2.32,8.48-2.37,4.01-5.06,6.38-8.07,7.11-3.01.73-6.34-.09-9.98-2.46-7.66-5.1-14.95-8.75-21.88-10.94-6.93-2.19-14.86-3.28-23.79-3.28-14.77,0-27.39,2.69-37.87,8.07-10.48,5.38-18.59,14.31-24.34,26.8-5.74,12.49-8.43,28.94-8.07,49.36.36,17.87,4.01,32.4,10.94,43.61,6.93,11.21,15.49,19.23,25.7,24.06,10.21,4.83,20.78,7.07,31.72,6.7,9.48-.18,17.59-1.18,24.34-3.01,6.74-1.82,11.66-3.6,14.77-5.33,3.1-1.73,6.84-4.05,11.21-6.97,3.1-2.19,6.24-3.32,9.43-3.42,3.19-.09,5.97,1.69,8.34,5.33,3.1,4.74,3.96,8.57,2.6,11.48-1.37,2.92-4.15,5.93-8.34,9.02-6.56,4.92-14.86,8.98-24.88,12.17-10.03,3.19-21.97,4.79-35.82,4.79-22.24,0-40.7-4.24-55.37-12.71Z"/>
        <path class="cls-2" d="M5328.12,1546.63c-13.58-13.58-20.37-33.77-20.37-60.57,0-17.32,3.1-32.08,9.3-44.3,6.19-12.21,15.18-21.51,26.93-27.89,11.76-6.38,25.84-9.57,42.25-9.57,15.31,0,28.62,3.19,39.92,9.57,11.3,6.38,19.96,15.72,25.98,28.03s9.02,27.03,9.02,44.16c0,26.8-6.56,46.99-19.69,60.57-13.12,13.58-31.54,20.37-55.23,20.37-25.16,0-44.53-6.79-58.11-20.37ZM5420.54,1530.36c8.29-10.39,12.44-25.52,12.44-45.39s-4.15-34.09-12.44-44.3c-8.3-10.21-19.82-15.31-34.59-15.31-15.86,0-28.16,5.11-36.91,15.31-8.75,10.21-13.12,24.98-13.12,44.3s4.38,35,13.12,45.39,21.05,15.59,36.91,15.59c14.77,0,26.29-5.2,34.59-15.59Z"/>
        <path class="cls-2" d="M5525,1556.34c-11.03-6.93-19.41-16.54-25.16-28.85s-8.61-26.2-8.61-41.7c0-16.59,3.37-31.08,10.12-43.48,6.74-12.39,15.45-21.78,26.11-28.16,10.66-6.38,21.83-9.48,33.5-9.3,10.57.18,19.59,2.28,27.07,6.29,7.47,4.01,14.86,10.48,22.15,19.41.18-9.48.27-28.44.27-56.88,0-2.37.41-4.28,1.23-5.74.82-1.46,2.09-2.55,3.83-3.28,1.73-.73,4.05-1.09,6.97-1.09,3.1,0,5.56.37,7.38,1.09,1.82.73,3.14,1.82,3.96,3.28.82,1.46,1.23,3.38,1.23,5.74v159.14c.18,3.28.45,5.93.82,7.93.36,2.01.91,3.74,1.64,5.2.55,1.46,1.18,2.55,1.91,3.28,1.27,1.64,1.96,3.33,2.05,5.06.09,1.73-.59,3.42-2.05,5.06-2.01,2.37-4.47,4.2-7.38,5.47-2.92,1.27-5.56,1.91-7.93,1.91-4.74,0-8.2-2.01-10.39-6.02s-3.28-10.94-3.28-20.78c-5.65,9.48-12.49,16.32-20.51,20.51-8.02,4.19-16.5,6.29-25.43,6.29-15.31,0-28.48-3.46-39.51-10.39ZM5593.22,1537.74c6.38-4.92,10.66-11.48,12.85-19.69s3.28-18.41,3.28-30.62c0-20.6-3.83-35.68-11.48-45.25s-18.32-14.36-31.99-14.36c-15.86,0-27.85,4.88-35.96,14.63-8.11,9.75-12.17,24.75-12.17,44.98,0,17.5,4.01,31.63,12.03,42.38,8.02,10.76,20.05,15.95,36.09,15.59,11.85-.18,20.96-2.73,27.34-7.66Z"/>
        <path class="cls-2" d="M5688.24,1545.4c-12.49-14.22-18.83-34.73-19-61.52,0-12.39,2.19-24.56,6.56-36.5,4.38-11.94,12.21-22.1,23.52-30.49,11.3-8.38,26.7-12.58,46.21-12.58,13.49,0,25.11,2.55,34.86,7.66,9.75,5.11,17.13,11.89,22.15,20.37,5.01,8.48,7.52,17.82,7.52,28.03s-1.46,17.96-4.38,24.34c-1.64,3.46-7.02,6.2-16.13,8.2-9.12,2.01-19.05,3.01-29.8,3.01-12.21,0-24.57-.55-37.05-1.64-12.49-1.09-21.01-2.19-25.57-3.28,1.09,36.46,17.04,54.51,47.85,54.14,8.38-.18,16.54-1.55,24.47-4.1,7.93-2.55,15.54-5.65,22.83-9.3,1.46-.73,2.78-1.37,3.96-1.91,1.18-.55,2.05-.82,2.6-.82,1.27,0,2.78.82,4.51,2.46,1.73,1.64,3.14,3.55,4.24,5.74,1.46,3.28,1.73,6.43.82,9.43-.92,3.01-3.65,5.61-8.2,7.79-9.84,4.74-18.83,8.11-26.93,10.12-8.11,2-17.27,2.91-27.48,2.73-25.89-.37-45.08-7.66-57.56-21.88ZM5721.6,1476.08c12.67,1,25.38,1.37,38.14,1.09,12.76-.27,21.78-1.5,27.07-3.69.73-15.49-2.64-27.39-10.12-35.68-7.48-8.29-17.96-12.44-31.45-12.44-9.12,0-16.86,1.23-23.24,3.69-6.38,2.46-11.72,7.11-16,13.95-4.29,6.84-7.16,16.64-8.61,29.39,3.46,1.46,11.53,2.69,24.2,3.69Z"/>
      </g>
      <g>
        <path class="cls-3" d="M373.24,0c202.74,0,372.62,168.64,372.62,370.76s-168.64,379.44-372.62,379.44S0,579.08,0,370.76,169.88,0,373.24,0ZM373.86,607.6c124,0,226.3-105.4,226.3-235.6s-102.92-229.4-226.3-229.4-228.16,104.16-228.16,229.4,102.3,235.6,228.16,235.6Z"/>
        <path class="cls-3" d="M1088.09,651h12.4c0-111.6,5.58-251.1,21.08-349.68L1168.07,6.2h205.22v737.79h-145.7v-87.42c0-167.4,22.94-390.6,40.3-557.38h-12.4c-17.36,166.78-50.84,386.88-85.56,551.18l-19.84,93.62h-111.6l-19.84-93.62c-34.72-164.3-68.2-384.4-85.56-551.18h-12.4c17.36,166.78,40.3,389.98,40.3,557.38v87.42h-145.7V6.2h205.22l47.12,295.12c15.5,98.58,20.46,238.08,20.46,349.68Z"/>
        <path class="cls-3" d="M1678.32,6.2c109.12,0,176.7,87.42,176.7,228.78s-67.58,228.16-176.7,228.16h-71.3v280.86h-145.7V6.2h217ZM1641.12,326.74c42.78,0,68.2-34.72,68.2-91.76s-26.04-92.38-68.2-92.38h-34.1v184.14h34.1Z"/>
        <path class="cls-3" d="M2214.38,739.35c-27.5-13.17-49.97-31.58-67.41-55.2s-27.31-50.94-29.62-81.94c-3.88-51.12,6.19-107.88,30.22-170.25,24.02-62.36,57.72-129.95,101.11-202.78-49.59-3.09-97.23-7.75-142.94-13.95-6.2,29.45-13.38,59.67-21.5,90.66-8.14,31-14.92,51.91-20.34,62.75-5.44,12.41-14.16,21.12-26.16,26.16s-25.56,7.36-40.67,6.97-30.02-3.3-44.73-8.72-25.58-11.81-32.55-19.17-11.05-16.08-12.2-26.16c-1.16-10.06-.58-22.84,1.75-38.34l3.48-16.28c10.06-41.83,22.47-89.47,37.19-142.94l17.44-60.42c6.19-22.47,16.27-37.77,30.2-45.91,13.94-8.12,32.16-9.48,54.62-4.06,17.81,4.66,32.34,11.05,43.58,19.17,11.23,8.14,16.86,19.95,16.86,35.44,37.95-8.52,73.39-13.75,106.33-15.69,32.92-1.94,67.59-.97,104.02,2.91,19.36,2.33,37.17,7.56,53.45,15.69,16.27,8.14,28.27,20.34,36.02,36.61,7.75,16.28,6.2,37.58-4.64,63.92-9.3,20.92-18.98,41.64-29.05,62.17-10.08,20.53-19.77,40.48-29.06,59.84-24.8,48.81-43.2,87.17-55.2,115.06s-19.56,53.84-22.66,77.84c-4.66,30.22-2.14,51.14,7.55,62.77s26.16,13.17,49.41,4.64c26.33-4.64,48.02-18.78,65.06-42.41s33.31-52.88,48.81-87.75c11.62-24.02,20.72-40.86,27.31-50.55,6.58-9.69,14.12-14.14,22.66-13.38,15.5,0,31.38,4.08,47.66,12.2,16.27,8.14,29.83,18.22,40.67,30.22,10.84,12.02,16.27,23.06,16.27,33.12-.78,24.8-13.75,61.41-38.94,109.83s-60.05,91.81-104.59,130.16-95.09,57.52-151.64,57.52c-31,0-60.25-6.59-87.75-19.75Z"/>
        <path class="cls-3" d="M2761.28,6.2h208.32l115.32,737.79h-145.7l-21.7-169.26h-104.16l-21.7,169.26h-145.7L2761.28,6.2ZM2871.63,124h-12.4c0,29.76-1.24,62-3.72,83.08l-24.8,231.26h69.44l-24.8-231.26c-2.48-21.08-3.72-53.32-3.72-83.08Z"/>
        <path class="cls-3" d="M3252.93,341h12.4c13.02-58.9,38.44-135.16,63.86-190.34l66.96-144.46h145.7l-139.5,288.92,151.9,448.88h-145.7l-97.34-287.68-23.56,34.72v252.96h-145.7V6.2h145.7v135.16c0,48.98-14.26,122.14-34.72,199.64Z"/>
        <path class="cls-3" d="M3701.81,6.2h208.32l115.32,737.79h-145.7l-21.7-169.26h-104.16l-21.7,169.26h-145.7L3701.81,6.2ZM3812.17,124h-12.4c0,29.76-1.24,62-3.72,83.08l-24.8,231.26h69.44l-24.8-231.26c-2.48-21.08-3.72-53.32-3.72-83.08Z"/>
        <path class="cls-3" d="M4286.47,184.14c0-39.68-13.64-60.14-40.3-60.14-24.8,0-39.68,20.46-39.68,55.18,0,31.62,12.4,53.94,85.56,122.14,122.14,112.84,156.24,161.2,156.24,251.1,0,128.34-70.06,197.78-199.02,197.78s-194.68-68.82-194.68-200.26v-65.1h136.4v65.72c0,48.98,19.84,75.64,57.04,75.64s54.56-24.8,54.56-71.92c0-40.92-13.64-60.14-89.9-127.1-117.8-104.78-151.9-158.1-151.9-246.14,0-119.04,62.62-181.04,182.9-181.04s179.18,58.9,179.18,172.98v54.56h-136.4v-43.4Z"/>
        <path class="cls-3" d="M4517.72,6.2h145.7v258.54h108.5V6.2h145.7v737.79h-145.7v-342.86h-108.5v342.86h-145.7V6.2Z"/>
      </g>
      <g>
        <path class="cls-3" d="M308.53,1592.35c-27.5-13.17-49.97-31.58-67.41-55.2s-27.31-50.94-29.62-81.94c-3.88-51.12,6.19-107.88,30.22-170.25,24.02-62.36,57.72-129.95,101.11-202.78-49.59-3.09-97.23-7.75-142.94-13.95-6.2,29.45-13.38,59.67-21.5,90.66-8.14,31-14.92,51.91-20.34,62.75-5.44,12.41-14.16,21.12-26.16,26.16s-25.56,7.36-40.67,6.97-30.02-3.3-44.73-8.72-25.58-11.81-32.55-19.17-11.05-16.08-12.2-26.16c-1.16-10.06-.58-22.84,1.75-38.34l3.48-16.28c10.06-41.83,22.47-89.47,37.19-142.94l17.44-60.42c6.19-22.47,16.27-37.77,30.2-45.91,13.94-8.12,32.16-9.48,54.62-4.06,17.81,4.66,32.34,11.05,43.58,19.17,11.23,8.14,16.86,19.95,16.86,35.44,37.95-8.52,73.39-13.75,106.33-15.69,32.92-1.94,67.59-.97,104.02,2.91,19.36,2.33,37.17,7.56,53.45,15.69,16.27,8.14,28.27,20.34,36.02,36.61,7.75,16.28,6.2,37.58-4.64,63.92-9.3,20.92-18.98,41.64-29.05,62.17-10.08,20.53-19.77,40.48-29.06,59.84-24.8,48.81-43.2,87.17-55.2,115.06s-19.56,53.84-22.66,77.84c-4.66,30.22-2.14,51.14,7.55,62.77s26.16,13.17,49.41,4.64c26.33-4.64,48.02-18.78,65.06-42.41s33.31-52.88,48.81-87.75c11.62-24.02,20.72-40.86,27.31-50.55,6.58-9.69,14.12-14.14,22.66-13.38,15.5,0,31.38,4.08,47.66,12.2,16.27,8.14,29.83,18.22,40.67,30.22,10.84,12.02,16.27,23.06,16.27,33.12-.78,24.8-13.75,61.41-38.94,109.83s-60.05,91.81-104.59,130.16-95.09,57.52-151.64,57.52c-31,0-60.25-6.59-87.75-19.75Z"/>
        <path class="cls-3" d="M829.24,859.2h208.32l115.32,737.79h-145.7l-21.7-169.26h-104.16l-21.7,169.26h-145.7l115.32-737.79ZM939.6,977h-12.4c0,29.76-1.24,62-3.72,83.08l-24.8,231.26h69.44l-24.8-231.26c-2.48-21.08-3.72-53.32-3.72-83.08Z"/>
        <path class="cls-3" d="M1196.28,859.2h145.7v258.54h108.5v-258.54h145.7v737.79h-145.7v-342.86h-108.5v342.86h-145.7v-737.79Z"/>
        <path class="cls-3" d="M1754.9,859.2h208.32l115.32,737.79h-145.7l-21.7-169.26h-104.16l-21.7,169.26h-145.7l115.32-737.79ZM1865.25,977h-12.4c0,29.76-1.24,62-3.72,83.08l-24.8,231.26h69.44l-24.8-231.26c-2.48-21.08-3.72-53.32-3.72-83.08Z"/>
        <path class="cls-3" d="M2267.63,1596.99h-145.7v-737.79h170.5l55.18,198.4c36.58,131.44,75.02,311.86,93.62,446.4h12.4c-21.08-134.54-52.7-319.3-52.7-456.94v-187.86h145.7v737.79h-161.2l-57.04-191.58c-40.3-135.16-81.84-319.3-102.3-453.22h-12.4c21.7,133.92,53.94,322.4,53.94,464.38v180.42Z"/>
        <path class="cls-3" d="M2952.73,1603.19c-200.88,0-350.3-159.96-350.3-375.1s139.5-375.1,354.64-375.1c172.36,0,304.42,107.26,331.08,279h-148.8c-17.36-82.46-89.28-136.4-182.28-136.4-123.38,0-208.94,95.48-208.94,233.74s84.32,231.26,209.56,231.26c91.76,0,165.54-52.08,189.1-132.06h-189.1v-124h342.86v92.38c0,165.54-159.34,306.28-347.82,306.28Z"/>
        <path class="cls-3" d="M3555.36,859.2c128.96,0,203.98,97.34,203.98,264.12v209.56c0,166.78-75.02,264.12-203.98,264.12h-199.02v-737.79h199.02ZM3522.5,1460.6c60.14,0,91.14-43.4,91.14-127.72v-209.56c0-84.32-31-127.72-91.14-127.72h-20.46v465h20.46Z"/>
        <path class="cls-3" d="M3890.17,859.2h208.32l115.32,737.79h-145.7l-21.7-169.26h-104.16l-21.7,169.26h-145.7l115.32-737.79ZM4000.53,977h-12.4c0,29.76-1.24,62-3.72,83.08l-24.8,231.26h69.44l-24.8-231.26c-2.48-21.08-3.72-53.32-3.72-83.08Z"/>
        <path class="cls-3" d="M4257.2,859.2h145.7v601.4h151.9v136.4h-297.6v-737.79Z"/>
        <path class="cls-3" d="M4610.6,1596.99v-737.79h306.9v136.4h-161.2v140.74h148.8v136.4h-148.8v187.86h164.3v136.4h-310Z"/>
      </g>
      <line class="cls-1" x1="1377.4" y1="814.69" x2="1448.11" y2="743.98"/>
    </g>
  </g>
</svg>